<svg xmlns="http://www.w3.org/2000/svg" xmlns:xlink="http://www.w3.org/1999/xlink" version="1.1" data-diagram-type="DESCRIPTION" style="width:538px;height:203px;background:#FFFFFF;" width="538px" height="203px" viewBox="0 0 538 203" zoomAndPan="magnify" preserveAspectRatio="none" contentStyleType="text/css"><?plantuml 1.2026.8?><defs/><g font-family="sans-serif" lengthAdjust="spacing"><!--cluster Funções--><g class="cluster" data-qualified-name="Fun..es" id="ent0002" data-source-line="6"><path d="M186,98.5 L244.565,98.5 A3.75,3.75 0 0 1 247.065,101 L254.065,122.109 L521,122.109 A2.5,2.5 0 0 1 523.5,124.609 L523.5,186 A2.5,2.5 0 0 1 521,188.5 L186,188.5 A2.5,2.5 0 0 1 183.5,186 L183.5,101 A2.5,2.5 0 0 1 186,98.5" style="stroke:#000;stroke-width:1.5;" fill="none"/><line x1="183.5" y1="122.109" x2="254.065" y2="122.109" style="stroke:#000;stroke-width:1.5;"/><text x="187.5" y="115.033" fill="#000" font-size="14" textLength="57.565" font-weight="700">Funções</text></g><!--entity f1--><g class="entity" data-qualified-name="Fun..es.f1" id="ent0003" data-source-line="7"><rect x="428" y="134.5" width="79.145" height="37.609" fill="#FFFFE0" style="stroke:#181818;stroke-width:0.5;" rx="35" ry="35"/><text x="438" y="159.033" fill="#000" font-size="14" textLength="59.145">função1()</text></g><!--entity f2--><g class="entity" data-qualified-name="Fun..es.f2" id="ent0004" data-source-line="8"><rect x="314" y="134.5" width="79.145" height="37.609" fill="#FFFFE0" style="stroke:#181818;stroke-width:0.5;" rx="35" ry="35"/><text x="324" y="159.033" fill="#000" font-size="14" textLength="59.145">função2()</text></g><!--entity f3--><g class="entity" data-qualified-name="Fun..es.f3" id="ent0005" data-source-line="9"><rect x="200" y="134.5" width="79.145" height="37.609" fill="#FFFFE0" style="stroke:#181818;stroke-width:0.5;" rx="35" ry="35"/><text x="210" y="159.033" fill="#000" font-size="14" textLength="59.145">função3()</text></g><!--entity dados--><g class="entity" data-qualified-name="dados" id="ent0001" data-source-line="4"><polygon points="175.5,16,185.5,6,417.81,6,417.81,61.219,407.81,71.219,175.5,71.219,175.5,16" fill="#FFA07A" style="stroke:#FF4500;stroke-width:0.5;stroke-linejoin:miter;stroke-miterlimit:10;"/><line x1="407.81" y1="16" x2="417.81" y2="6" style="stroke:#FF4500;stroke-width:0.5;"/><line x1="175.5" y1="16" x2="407.81" y2="16" style="stroke:#FF4500;stroke-width:0.5;"/><line x1="407.81" y1="16" x2="407.81" y2="71.219" style="stroke:#FF4500;stroke-width:0.5;"/><text x="190.5" y="40.533" fill="#FF4500" font-size="14" textLength="49.786">DADOS</text><text x="190.5" y="58.143" fill="#FF4500" font-size="14" textLength="202.31">(soltos, expostos, sem proteção)</text></g><g class="entity" data-qualified-name="GMN9" id="ent0010" data-source-line="17"><path d="M6,131 L6,176.219 L164.771,176.219 L164.771,141 L154.771,131 L6,131" style="stroke:#181818;stroke-width:0.5;" fill="#FEFFDD"/><path d="M154.771,131 L154.771,141 L164.771,141 L154.771,131" style="stroke:#181818;stroke-width:1;" fill="#FEFFDD"/><text x="12" y="150.533" fill="#000" font-size="14" textLength="103.517">Qualquer função</text><text x="12" y="168.143" fill="#000" font-size="14" textLength="137.771">acessa qualquer dado</text></g><!--link dados to f1--><g class="link" data-entity-1="ent0001" data-entity-2="ent0003" id="lnk6" data-source-line="12" data-link-type="dependency"><path d="M382.632,73.375 C393.902,79.135 400.56,83.34 410.5,90.5 C427.59,102.8 440.391,116.956 451.031,130.426" style="stroke:#181818;stroke-width:1;" fill="none" id="dados-f1"/><polygon points="378.18,71.1,384.374,78.758,382.632,73.375,388.014,71.634,378.18,71.1" fill="#181818" style="stroke:#181818;stroke-width:1;stroke-linejoin:miter;stroke-miterlimit:10;"/><polygon points="454.13,134.35,451.69,124.808,451.031,130.426,445.412,129.767,454.13,134.35" fill="#181818" style="stroke:#181818;stroke-width:1;stroke-linejoin:miter;stroke-miterlimit:10;"/></g><!--link dados to f2--><g class="link" data-entity-1="ent0001" data-entity-2="ent0004" id="lnk7" data-source-line="13" data-link-type="dependency"><path d="M314.782,75.744 C325.052,96.104 333.518,112.886 342.078,129.856" style="stroke:#181818;stroke-width:1;" fill="none" id="dados-f2"/><polygon points="312.53,71.28,313.012,81.117,314.782,75.744,320.155,77.514,312.53,71.28" fill="#181818" style="stroke:#181818;stroke-width:1;stroke-linejoin:miter;stroke-miterlimit:10;"/><polygon points="344.33,134.32,343.848,124.483,342.078,129.856,336.705,128.086,344.33,134.32" fill="#181818" style="stroke:#181818;stroke-width:1;stroke-linejoin:miter;stroke-miterlimit:10;"/></g><!--link dados to f3--><g class="link" data-entity-1="ent0001" data-entity-2="ent0005" id="lnk8" data-source-line="14" data-link-type="dependency"><path d="M278.218,75.744 C267.948,96.104 259.482,112.886 250.922,129.856" style="stroke:#181818;stroke-width:1;" fill="none" id="dados-f3"/><polygon points="280.47,71.28,272.845,77.514,278.218,75.744,279.988,81.117,280.47,71.28" fill="#181818" style="stroke:#181818;stroke-width:1;stroke-linejoin:miter;stroke-miterlimit:10;"/><polygon points="248.67,134.32,256.295,128.086,250.922,129.856,249.152,124.483,248.67,134.32" fill="#181818" style="stroke:#181818;stroke-width:1;stroke-linejoin:miter;stroke-miterlimit:10;"/></g><!--link dados to GMN9--><g class="link" data-entity-1="ent0001" data-entity-2="ent0010" id="lnk11" data-source-line="17" data-link-type="association"><path d="M222.53,71.09 C209.37,77.21 195.91,83.82 183.5,90.5 C160.63,102.81 135.93,118.46 117.04,130.96" style="stroke:#181818;stroke-width:1;stroke-dasharray:7,7;" fill="none" id="dados-GMN9"/></g><?plantuml-src ZP31IiD048Rl-nH3UgbWeKa4mKeXK78jsgkNiJk9ePkTT6U3LV5fUl09V8A-c9k4804Fpcd-_J_-dnqvLBP1XpLeAh0rFcVhTzKxGNoZb6LD46sopNRtPEV2nhDS0vqQbduJgg5nxEdoTJdpLGGee56pm2pFi-LjjZALfRkjGrlI8-cLfvF_bKerk3zW6JhoreQCRv88FXI42GMkTuhUENCy7_AB66QcAb_y6nd3ht_3oGWd_u3J4KwdyATImsVk5ujrw9sePABIxbQUu9czvngu6CuG-XvQDCUM78njuGtt989m7AsELMGrT1a_?></g></svg>