<svg xmlns="http://www.w3.org/2000/svg" xmlns:xlink="http://www.w3.org/1999/xlink" version="1.1" data-diagram-type="CLASS" style="width:314px;height:321px;background:#FFFFFF;" width="314px" height="321px" viewBox="0 0 314 321" zoomAndPan="magnify" preserveAspectRatio="none" contentStyleType="text/css"><?plantuml 1.2026.8?><defs/><g font-family="sans-serif" lengthAdjust="spacing"><!--class Conta--><g class="entity" data-qualified-name="Conta" id="ent0001" data-source-line="2"><rect x="7" y="7" width="130.296" height="83.219" fill="#F1F1F1" style="stroke:#181818;stroke-width:0.5;" rx="2.5" ry="2.5"/><ellipse cx="49.422" cy="23" rx="11" ry="11" fill="#B4A7E5" style="stroke:#181818;stroke-width:1;"/><path d="M50.375,19.641 L50.375,26.297 L52.094,26.297 Q52.703,26.297 52.969,26.531 Q53.234,26.766 53.234,27.156 Q53.234,27.531 52.969,27.766 Q52.703,28 52.094,28 L46.953,28 Q46.344,28 46.078,27.766 Q45.813,27.531 45.813,27.141 Q45.813,26.766 46.078,26.531 Q46.344,26.297 46.953,26.297 L48.672,26.297 L48.672,19.641 L46.953,19.641 Q46.344,19.641 46.078,19.406 Q45.813,19.172 45.813,18.781 Q45.813,18.406 46.078,18.172 Q46.344,17.938 46.953,17.938 L52.094,17.938 Q52.703,17.938 52.969,18.172 Q53.234,18.406 53.234,18.781 Q53.234,19.172 52.969,19.406 Q52.703,19.641 52.094,19.641 L50.375,19.641 Z " fill="#000"/><text x="69.516" y="28.729" fill="#000" font-size="14" textLength="37.358" font-style="italic">Conta</text><line x1="8" y1="39" x2="136.296" y2="39" style="stroke:#181818;stroke-width:0.5;"/><line x1="8" y1="47" x2="136.296" y2="47" style="stroke:#181818;stroke-width:0.5;"/><g data-visibility-modifier="PUBLIC_METHOD"><ellipse cx="18" cy="61.305" rx="3" ry="3" fill="#84BE84" style="stroke:#038048;stroke-width:1;"/></g><text x="27" y="65.533" fill="#000" font-size="14" textLength="104.296">deposita(double)</text><g data-visibility-modifier="PUBLIC_METHOD"><ellipse cx="18" cy="78.914" rx="3" ry="3" fill="#84BE84" style="stroke:#038048;stroke-width:1;"/></g><text x="27" y="83.143" fill="#000" font-size="14" textLength="80.938">saca(double)</text></g><!--class Tributavel--><g class="entity" data-qualified-name="Tributavel" id="ent0002" data-source-line="7"><rect x="172.5" y="15.5" width="127.138" height="65.609" fill="#F1F1F1" style="stroke:#181818;stroke-width:0.5;" rx="2.5" ry="2.5"/><ellipse cx="202.651" cy="31.5" rx="11" ry="11" fill="#B4A7E5" style="stroke:#181818;stroke-width:1;"/><path d="M203.604,28.141 L203.604,34.797 L205.323,34.797 Q205.932,34.797 206.198,35.031 Q206.464,35.266 206.464,35.656 Q206.464,36.031 206.198,36.266 Q205.932,36.5 205.323,36.5 L200.182,36.5 Q199.573,36.5 199.307,36.266 Q199.042,36.031 199.042,35.641 Q199.042,35.266 199.307,35.031 Q199.573,34.797 200.182,34.797 L201.901,34.797 L201.901,28.141 L200.182,28.141 Q199.573,28.141 199.307,27.906 Q199.042,27.672 199.042,27.281 Q199.042,26.906 199.307,26.672 Q199.573,26.438 200.182,26.438 L205.323,26.438 Q205.932,26.438 206.198,26.672 Q206.464,26.906 206.464,27.281 Q206.464,27.672 206.198,27.906 Q205.932,28.141 205.323,28.141 L203.604,28.141 Z " fill="#000"/><text x="220.018" y="37.229" fill="#000" font-size="14" textLength="61.469" font-style="italic">Tributavel</text><line x1="173.5" y1="47.5" x2="298.638" y2="47.5" style="stroke:#181818;stroke-width:0.5;"/><line x1="173.5" y1="55.5" x2="298.638" y2="55.5" style="stroke:#181818;stroke-width:0.5;"/><g data-visibility-modifier="PUBLIC_METHOD"><ellipse cx="183.5" cy="69.805" rx="3" ry="3" fill="#84BE84" style="stroke:#038048;stroke-width:1;"/></g><text x="192.5" y="74.033" fill="#000" font-size="14" textLength="101.138">calcularTributo()</text></g><!--class ContaTributavel--><g class="entity" data-qualified-name="ContaTributavel" id="ent0003" data-source-line="11"><rect x="88.5" y="150" width="130.827" height="48" fill="#F1F1F1" style="stroke:#181818;stroke-width:0.5;" rx="2.5" ry="2.5"/><ellipse cx="103.5" cy="166" rx="11" ry="11" fill="#B4A7E5" style="stroke:#181818;stroke-width:1;"/><path d="M104.453,162.641 L104.453,169.297 L106.172,169.297 Q106.781,169.297 107.047,169.531 Q107.313,169.766 107.313,170.156 Q107.313,170.531 107.047,170.766 Q106.781,171 106.172,171 L101.031,171 Q100.422,171 100.156,170.766 Q99.891,170.531 99.891,170.141 Q99.891,169.766 100.156,169.531 Q100.422,169.297 101.031,169.297 L102.75,169.297 L102.75,162.641 L101.031,162.641 Q100.422,162.641 100.156,162.406 Q99.891,162.172 99.891,161.781 Q99.891,161.406 100.156,161.172 Q100.422,160.938 101.031,160.938 L106.172,160.938 Q106.781,160.938 107.047,161.172 Q107.313,161.406 107.313,161.781 Q107.313,162.172 107.047,162.406 Q106.781,162.641 106.172,162.641 L104.453,162.641 Z " fill="#000"/><text x="117.5" y="171.729" fill="#000" font-size="14" textLength="98.827" font-style="italic">ContaTributavel</text><line x1="89.5" y1="182" x2="218.327" y2="182" style="stroke:#181818;stroke-width:0.5;"/><line x1="89.5" y1="190" x2="218.327" y2="190" style="stroke:#181818;stroke-width:0.5;"/></g><!--class ContaInvestimento--><g class="entity" data-qualified-name="ContaInvestimento" id="ent0004" data-source-line="13"><rect x="79.5" y="258" width="148.73" height="48" fill="#F1F1F1" style="stroke:#181818;stroke-width:0.5;" rx="2.5" ry="2.5"/><ellipse cx="94.5" cy="274" rx="11" ry="11" fill="#ADD1B2" style="stroke:#181818;stroke-width:1;"/><path d="M97.266,269.875 Q97.422,269.656 97.609,269.547 Q97.797,269.438 98.016,269.438 Q98.391,269.438 98.625,269.703 Q98.859,269.953 98.859,270.563 L98.859,272.016 Q98.859,272.625 98.625,272.891 Q98.391,273.156 98.016,273.156 Q97.672,273.156 97.469,272.953 Q97.266,272.766 97.156,272.25 Q97.109,271.891 96.922,271.703 Q96.594,271.328 95.984,271.109 Q95.375,270.891 94.75,270.891 Q93.984,270.891 93.344,271.219 Q92.719,271.547 92.219,272.297 Q91.734,273.047 91.734,274.078 L91.734,275.172 Q91.734,276.406 92.625,277.234 Q93.516,278.047 95.109,278.047 Q96.047,278.047 96.703,277.797 Q97.094,277.641 97.516,277.203 Q97.781,276.938 97.922,276.859 Q98.078,276.781 98.281,276.781 Q98.609,276.781 98.859,277.047 Q99.125,277.297 99.125,277.641 Q99.125,277.984 98.781,278.391 Q98.281,278.969 97.484,279.297 Q96.406,279.75 95.109,279.75 Q93.594,279.75 92.391,279.125 Q91.406,278.625 90.719,277.563 Q90.031,276.484 90.031,275.203 L90.031,274.047 Q90.031,272.719 90.641,271.578 Q91.266,270.422 92.359,269.813 Q93.453,269.188 94.688,269.188 Q95.422,269.188 96.063,269.359 Q96.719,269.516 97.266,269.875 Z " fill="#000"/><text x="108.5" y="279.729" fill="#000" font-size="14" textLength="116.73">ContaInvestimento</text><line x1="80.5" y1="290" x2="227.23" y2="290" style="stroke:#181818;stroke-width:0.5;"/><line x1="80.5" y1="298" x2="227.23" y2="298" style="stroke:#181818;stroke-width:0.5;"/></g><!--reverse link Conta to ContaTributavel--><g class="link" data-entity-1="ent0001" data-entity-2="ent0003" id="lnk5" data-source-line="15" data-link-type="extension"><path d="M109.035,105.277 C122.185,125.087 127.56,133.18 138.67,149.91" style="stroke:#181818;stroke-width:1;" fill="none" id="Conta-backto-ContaTributavel" codeLine="15"/><polygon points="99.08,90.28,104.036,108.595,114.034,101.958,99.08,90.28" fill="none" style="stroke:#181818;stroke-width:1;stroke-linejoin:miter;stroke-miterlimit:10;"/></g><!--reverse link Tributavel to ContaTributavel--><g class="link" data-entity-1="ent0002" data-entity-2="ent0003" id="lnk6" data-source-line="16" data-link-type="extension"><path d="M204.711,96.624 C190.571,117.914 182.3,130.38 169.53,149.62" style="stroke:#181818;stroke-width:1;" fill="none" id="Tributavel-backto-ContaTributavel" codeLine="16"/><polygon points="214.67,81.63,199.713,93.305,209.709,99.944,214.67,81.63" fill="none" style="stroke:#181818;stroke-width:1;stroke-linejoin:miter;stroke-miterlimit:10;"/></g><!--reverse link ContaTributavel to ContaInvestimento--><g class="link" data-entity-1="ent0003" data-entity-2="ent0004" id="lnk7" data-source-line="17" data-link-type="extension"><path d="M154,216 C154,233.66 154,239.94 154,257.68" style="stroke:#181818;stroke-width:1;stroke-dasharray:7,7;" fill="none" id="ContaTributavel-backto-ContaInvestimento" codeLine="17"/><polygon points="154,198,148,216,160,216,154,198" fill="none" style="stroke:#181818;stroke-width:1;stroke-linejoin:miter;stroke-miterlimit:10;"/></g><?plantuml-src ROun3i8m34Ltdo9Z4MfFmCR4pWLSrqYMJ8mIfmjmzrO4jQZ5c__ty_yIdTCDYSFPecDuGfZd60P-M1R7Ph3IAn--SaPQfJU0BFWrILySHzRb1w5IKKpLicP3V09N380KSwxo9OwSNUuStG1gjTEhRNVGJ-nVVxFFHrstZvW0?></g></svg>