<svg xmlns="http://www.w3.org/2000/svg" xmlns:xlink="http://www.w3.org/1999/xlink" version="1.1" data-diagram-type="CLASS" style="width:393px;height:339px;background:#FFFFFF;" width="393px" height="339px" viewBox="0 0 393 339" zoomAndPan="magnify" preserveAspectRatio="none" contentStyleType="text/css"><?plantuml 1.2026.8?><defs/><g font-family="sans-serif" lengthAdjust="spacing"><!--class Produto--><g class="entity" data-qualified-name="Produto" id="ent0001" data-source-line="4"><rect x="7" y="7" width="371.138" height="127.758" fill="#F1F1F1" style="stroke:#181818;stroke-width:0.5;" rx="2.5" ry="2.5"/><ellipse cx="165.803" cy="22" rx="10" ry="10" fill="#ADD1B2" style="stroke:#181818;stroke-width:1;"/><path d="M166.74,18.641 Q166.865,18.469 167.006,18.391 Q167.147,18.313 167.319,18.313 Q167.6,18.313 167.772,18.516 Q167.959,18.703 167.959,19.172 L167.959,20.281 Q167.959,20.75 167.772,20.953 Q167.6,21.141 167.319,21.141 Q167.053,21.141 166.897,21 Q166.74,20.859 166.662,20.453 Q166.615,20.188 166.49,20.047 Q166.225,19.75 165.756,19.578 Q165.287,19.406 164.819,19.406 Q164.24,19.406 163.74,19.672 Q163.256,19.922 162.881,20.5 Q162.506,21.063 162.506,21.844 L162.506,22.688 Q162.506,23.625 163.194,24.266 Q163.881,24.891 165.084,24.891 Q165.819,24.891 166.319,24.688 Q166.6,24.578 166.928,24.234 Q167.131,24.031 167.24,23.984 Q167.365,23.922 167.506,23.922 Q167.772,23.922 167.959,24.125 Q168.162,24.313 168.162,24.578 Q168.162,24.844 167.897,25.156 Q167.506,25.594 166.897,25.844 Q166.084,26.188 165.1,26.188 Q163.944,26.188 163.006,25.719 Q162.256,25.328 161.725,24.516 Q161.209,23.688 161.209,22.719 L161.209,21.828 Q161.209,20.813 161.678,19.938 Q162.162,19.063 162.99,18.594 Q163.834,18.109 164.772,18.109 Q165.334,18.109 165.819,18.25 Q166.319,18.375 166.74,18.641 Z " fill="#000"/><text x="184.803" y="27.319" fill="#000" font-size="13" textLength="45.532">Produto</text><line x1="8" y1="37" x2="377.138" y2="37" style="stroke:#181818;stroke-width:0.5;"/><g data-visibility-modifier="PRIVATE_FIELD"><rect x="15" y="47.676" width="6" height="6" fill="none" style="stroke:#C82930;stroke-width:1;"/></g><text x="26" y="54.495" fill="#000" font-size="13" textLength="70.091">String nome</text><g data-visibility-modifier="PRIVATE_FIELD"><rect x="15" y="64.027" width="6" height="6" fill="none" style="stroke:#C82930;stroke-width:1;"/></g><text x="26" y="70.847" fill="#000" font-size="13" textLength="75.169">double preco</text><g data-visibility-modifier="PRIVATE_FIELD"><rect x="15" y="80.379" width="6" height="6" fill="none" style="stroke:#C82930;stroke-width:1;"/></g><text x="26" y="87.198" fill="#000" font-size="13" textLength="132.241">Fornecedor fornecedor</text><line x1="8" y1="94.055" x2="377.138" y2="94.055" style="stroke:#181818;stroke-width:0.5;"/><g data-visibility-modifier="PUBLIC_METHOD"><ellipse cx="18" cy="107.73" rx="3" ry="3" fill="#84BE84" style="stroke:#038048;stroke-width:1;"/></g><text x="26" y="111.55" fill="#000" font-size="13" textLength="346.138">Produto(String nome, double preco, Fornecedor fornecedor)</text><g data-visibility-modifier="PUBLIC_METHOD"><ellipse cx="18" cy="124.082" rx="3" ry="3" fill="#84BE84" style="stroke:#038048;stroke-width:1;"/></g><text x="26" y="127.901" fill="#000" font-size="13" textLength="91.032">String toString()</text></g><!--class Fornecedor--><g class="entity" data-qualified-name="Fornecedor" id="ent0002" data-source-line="12"><rect x="73" y="213" width="238.872" height="111.406" fill="#F1F1F1" style="stroke:#181818;stroke-width:0.5;" rx="2.5" ry="2.5"/><ellipse cx="155.196" cy="228" rx="10" ry="10" fill="#ADD1B2" style="stroke:#181818;stroke-width:1;"/><path d="M156.134,224.641 Q156.259,224.469 156.399,224.391 Q156.54,224.313 156.712,224.313 Q156.993,224.313 157.165,224.516 Q157.353,224.703 157.353,225.172 L157.353,226.281 Q157.353,226.75 157.165,226.953 Q156.993,227.141 156.712,227.141 Q156.446,227.141 156.29,227 Q156.134,226.859 156.056,226.453 Q156.009,226.188 155.884,226.047 Q155.618,225.75 155.149,225.578 Q154.681,225.406 154.212,225.406 Q153.634,225.406 153.134,225.672 Q152.649,225.922 152.274,226.5 Q151.899,227.063 151.899,227.844 L151.899,228.688 Q151.899,229.625 152.587,230.266 Q153.274,230.891 154.478,230.891 Q155.212,230.891 155.712,230.688 Q155.993,230.578 156.321,230.234 Q156.524,230.031 156.634,229.984 Q156.759,229.922 156.899,229.922 Q157.165,229.922 157.353,230.125 Q157.556,230.313 157.556,230.578 Q157.556,230.844 157.29,231.156 Q156.899,231.594 156.29,231.844 Q155.478,232.188 154.493,232.188 Q153.337,232.188 152.399,231.719 Q151.649,231.328 151.118,230.516 Q150.603,229.688 150.603,228.719 L150.603,227.828 Q150.603,226.813 151.071,225.938 Q151.556,225.063 152.384,224.594 Q153.228,224.109 154.165,224.109 Q154.728,224.109 155.212,224.25 Q155.712,224.375 156.134,224.641 Z " fill="#000"/><text x="174.196" y="233.319" fill="#000" font-size="13" textLength="66.479">Fornecedor</text><line x1="74" y1="243" x2="310.872" y2="243" style="stroke:#181818;stroke-width:0.5;"/><g data-visibility-modifier="PRIVATE_FIELD"><rect x="81" y="253.676" width="6" height="6" fill="none" style="stroke:#C82930;stroke-width:1;"/></g><text x="92" y="260.495" fill="#000" font-size="13" textLength="70.091">String nome</text><g data-visibility-modifier="PRIVATE_FIELD"><rect x="81" y="270.027" width="6" height="6" fill="none" style="stroke:#C82930;stroke-width:1;"/></g><text x="92" y="276.847" fill="#000" font-size="13" textLength="61.42">String cnpj</text><line x1="74" y1="283.703" x2="310.872" y2="283.703" style="stroke:#181818;stroke-width:0.5;"/><g data-visibility-modifier="PUBLIC_METHOD"><ellipse cx="84" cy="297.379" rx="3" ry="3" fill="#84BE84" style="stroke:#038048;stroke-width:1;"/></g><text x="92" y="301.198" fill="#000" font-size="13" textLength="213.872">Fornecedor(String nome, String cnpj)</text><g data-visibility-modifier="PUBLIC_METHOD"><ellipse cx="84" cy="313.73" rx="3" ry="3" fill="#84BE84" style="stroke:#038048;stroke-width:1;"/></g><text x="92" y="317.55" fill="#000" font-size="13" textLength="91.032">String toString()</text></g><!--link Produto to Fornecedor--><g class="link" data-entity-1="ent0001" data-entity-2="ent0002" id="lnk3" data-source-line="19" data-link-type="aggregation"><path d="M192.5,147.2 C192.5,172.19 192.5,183.64 192.5,207.73" style="stroke:#181818;stroke-width:1;" fill="none" id="Produto-Fornecedor" codeLine="19"/><polygon points="192.5,135.2,188.5,141.2,192.5,147.2,196.5,141.2,192.5,135.2" fill="none" style="stroke:#181818;stroke-width:1;stroke-linejoin:miter;stroke-miterlimit:10;"/><polygon points="192.5,212.73,196.5,203.73,192.5,207.73,188.5,203.73,192.5,212.73" fill="#181818" style="stroke:#181818;stroke-width:1;stroke-linejoin:miter;stroke-miterlimit:10;"/><text x="193.5" y="179.495" fill="#000" font-size="13" textLength="78.051">🎒 agregação</text></g><?plantuml-src AyxEp2j8B4hCLKX9JKiipIbnoyyh2SwiIbKmDERYIiv9B2vM22ZAJoajoLUevb800bs5u9AYpBnqXRpyt5IeI4f-QL9Ega91KMfoFbJ8BRyeBpKvDIM_I24DpWJBQSCCr40oI0V531tisZMX-g7wIl8X30rDhbgOMv7quNOkL2Gvho0BQY926wgZa5JYjHmMHFcwkdR8Rh1I-32_Rv92OdfHQdhYuUM75-S30000?></g></svg>